# xmcd
#
# Track frame offsets:
#	150
#	20136
#	41676
#	62851
#	78572
#	97189
#	119185
#	135721
#	152629
#	169422
#	186985
#	206538
#	222721
#	242607
#	260191
#	278618
#	299149
#	317380
#	334351
#
# Disc length: 4715 seconds
#
# Revision: 1
# Processed by: cddbd v1.5PL3 Copyright (c) Steve Scherf et al.
# Submitted via: EasyCDDAExtractor 7.0.4.1
#
DISCID=3f126913
DTITLE=Various Artist - Baladas V.I.P.
DYEAR=2004
DGENRE=Baladas
TTITLE0=David Bisbal - Dígale
TTITLE1=Andy and Lucas - Tanto la quería
TTITLE2=Nuria Fergó - Quiereme
TTITLE3=David Bustamante - Devuélveme el aire
TTITLE4=Isla Sanjuan - Amistad
TTITLE5=Manu Tenorio - Usted no se merece
TTITLE6=David Civera - Todavía
TTITLE7=Hugo - Lo que tú quieras soy
TTITLE8=Andermay - Cuando me haya ido
TTITLE9=Manuel Carrasco - Lo bello de mirarte
TTITLE10=Manu Guix - Adiós a medias
TTITLE11=Miguel Nández - Luz
TTITLE12=Pedro Javier Hermosilla - Camino de Madrid
TTITLE13=Gisela - Este amor es tuyo
TTITLE14=Merche - Le deseo
TTITLE15=Beth - Estás
TTITLE16=Austin - La incondicional
TTITLE17=Rosa - Ahora sabes cómo soy
TTITLE18=Alex - Jugándome la vida entera
EXTD=
EXTT0=
EXTT1=
EXTT2=
EXTT3=
EXTT4=
EXTT5=
EXTT6=
EXTT7=
EXTT8=
EXTT9=
EXTT10=
EXTT11=
EXTT12=
EXTT13=
EXTT14=
EXTT15=
EXTT16=
EXTT17=
EXTT18=
PLAYORDER=
